<?xml version="1.0" encoding="UTF-8" standalone="no"?>
<!DOCTYPE svg PUBLIC "-//W3C//DTD SVG 1.1//EN"
 "http://www.w3.org/Graphics/SVG/1.1/DTD/svg11.dtd">
<!-- Generated by graphviz version 2.47.1 (20210417.1919)
 -->
<!-- Title: G Pages: 1 -->
<svg width="298pt" height="526pt"
 viewBox="0.00 0.00 298.00 526.00" xmlns="http://www.w3.org/2000/svg" xmlns:xlink="http://www.w3.org/1999/xlink">
<g id="graph0" class="graph" transform="scale(1 1) rotate(0) translate(4 522)">
<title>G</title>
<polygon fill="white" stroke="transparent" points="-4,4 -4,-522 294,-522 294,4 -4,4"/>
<g id="clust1" class="cluster">
<title>cluster_Global</title>
<polygon fill="none" stroke="black" points="8,-8 8,-510 282,-510 282,-8 8,-8"/>
<text text-anchor="middle" x="145" y="-497.2" font-family="Times,serif" font-size="11.00" fill="gray">Global</text>
</g>
<g id="clust2" class="cluster">
<title>cluster_\Sandbox</title>
<polygon fill="none" stroke="black" points="16,-16 16,-482 274,-482 274,-16 16,-16"/>
<text text-anchor="middle" x="145" y="-469.2" font-family="Times,serif" font-size="11.00" fill="gray">Sandbox</text>
</g>
<g id="clust3" class="cluster">
<title>cluster_\Sandbox\Value</title>
<polygon fill="none" stroke="black" points="24,-24 24,-454 266,-454 266,-24 24,-24"/>
<text text-anchor="middle" x="145" y="-441.2" font-family="Times,serif" font-size="11.00" fill="gray">Value</text>
</g>
<g id="clust4" class="cluster">
<title>cluster_\Sandbox\Value\Either</title>
<polygon fill="none" stroke="black" points="32,-300 32,-426 258,-426 258,-300 32,-300"/>
<text text-anchor="middle" x="145" y="-413.2" font-family="Times,serif" font-size="11.00" fill="gray">Either</text>
</g>
<g id="clust5" class="cluster">
<title>cluster_\Sandbox\Value\LinearList</title>
<polygon fill="none" stroke="black" points="32,-166 32,-292 258,-292 258,-166 32,-166"/>
<text text-anchor="middle" x="145" y="-279.2" font-family="Times,serif" font-size="11.00" fill="gray">LinearList</text>
</g>
<g id="clust6" class="cluster">
<title>cluster_\Sandbox\Value\Option</title>
<polygon fill="none" stroke="black" points="45.5,-32 45.5,-158 258,-158 258,-32 45.5,-32"/>
<text text-anchor="middle" x="151.75" y="-145.2" font-family="Times,serif" font-size="11.00" fill="gray">Option</text>
</g>
<!-- \\Sandbox\\Value\\Either\\Either -->
<g id="node1" class="node">
<title>\\Sandbox\\Value\\Either\\Either</title>
<polygon fill="none" stroke="black" points="124,-371 40,-371 40,-335 124,-335 124,-371"/>
<text text-anchor="start" x="48" y="-356.2" font-family="Courier,monospace" font-size="11.00">«abstract»</text>
<text text-anchor="start" x="61.5" y="-344.2" font-family="Courier,monospace" font-size="11.00">Either</text>
</g>
<!-- \\Sandbox\\Value\\Either\\Left -->
<g id="node2" class="node">
<title>\\Sandbox\\Value\\Either\\Left</title>
<polygon fill="none" stroke="black" points="250,-398 196,-398 196,-362 250,-362 250,-398"/>
<text text-anchor="middle" x="223" y="-377.2" font-family="Courier,monospace" font-size="11.00">Left</text>
</g>
<!-- \\Sandbox\\Value\\Either\\Left&#45;&gt;\\Sandbox\\Value\\Either\\Either -->
<g id="edge1" class="edge">
<title>\\Sandbox\\Value\\Either\\Left&#45;&gt;\\Sandbox\\Value\\Either\\Either</title>
<path fill="none" stroke="black" d="M195.86,-374.92C178.49,-371.55 155.1,-367.01 134.12,-362.93"/>
<polygon fill="none" stroke="black" points="134.54,-359.45 124.06,-360.98 133.21,-366.32 134.54,-359.45"/>
</g>
<!-- \\Sandbox\\Value\\Either\\Right -->
<g id="node3" class="node">
<title>\\Sandbox\\Value\\Either\\Right</title>
<polygon fill="none" stroke="black" points="250,-344 196,-344 196,-308 250,-308 250,-344"/>
<text text-anchor="middle" x="223" y="-323.2" font-family="Courier,monospace" font-size="11.00">Right</text>
</g>
<!-- \\Sandbox\\Value\\Either\\Right&#45;&gt;\\Sandbox\\Value\\Either\\Either -->
<g id="edge2" class="edge">
<title>\\Sandbox\\Value\\Either\\Right&#45;&gt;\\Sandbox\\Value\\Either\\Either</title>
<path fill="none" stroke="black" d="M195.86,-331.08C178.49,-334.45 155.1,-338.99 134.12,-343.07"/>
<polygon fill="none" stroke="black" points="133.21,-339.68 124.06,-345.02 134.54,-346.55 133.21,-339.68"/>
</g>
<!-- \\Sandbox\\Value\\LinearList\\Cons -->
<g id="node4" class="node">
<title>\\Sandbox\\Value\\LinearList\\Cons</title>
<polygon fill="none" stroke="black" points="250,-264 196,-264 196,-228 250,-228 250,-264"/>
<text text-anchor="middle" x="223" y="-243.2" font-family="Courier,monospace" font-size="11.00">Cons</text>
</g>
<!-- \\Sandbox\\Value\\LinearList\\LinearList -->
<g id="node5" class="node">
<title>\\Sandbox\\Value\\LinearList\\LinearList</title>
<polygon fill="none" stroke="black" points="124,-237 40,-237 40,-201 124,-201 124,-237"/>
<text text-anchor="start" x="48" y="-222.2" font-family="Courier,monospace" font-size="11.00">«abstract»</text>
<text text-anchor="start" x="48" y="-210.2" font-family="Courier,monospace" font-size="11.00">LinearList</text>
</g>
<!-- \\Sandbox\\Value\\LinearList\\Cons&#45;&gt;\\Sandbox\\Value\\LinearList\\LinearList -->
<g id="edge3" class="edge">
<title>\\Sandbox\\Value\\LinearList\\Cons&#45;&gt;\\Sandbox\\Value\\LinearList\\LinearList</title>
<path fill="none" stroke="black" d="M195.86,-240.92C178.49,-237.55 155.1,-233.01 134.12,-228.93"/>
<polygon fill="none" stroke="black" points="134.54,-225.45 124.06,-226.98 133.21,-232.32 134.54,-225.45"/>
</g>
<!-- \\Sandbox\\Value\\LinearList\\Nil -->
<g id="node6" class="node">
<title>\\Sandbox\\Value\\LinearList\\Nil</title>
<polygon fill="none" stroke="black" points="250,-210 196,-210 196,-174 250,-174 250,-210"/>
<text text-anchor="middle" x="223" y="-189.2" font-family="Courier,monospace" font-size="11.00">Nil</text>
</g>
<!-- \\Sandbox\\Value\\LinearList\\Nil&#45;&gt;\\Sandbox\\Value\\LinearList\\LinearList -->
<g id="edge4" class="edge">
<title>\\Sandbox\\Value\\LinearList\\Nil&#45;&gt;\\Sandbox\\Value\\LinearList\\LinearList</title>
<path fill="none" stroke="black" d="M195.86,-197.08C178.49,-200.45 155.1,-204.99 134.12,-209.07"/>
<polygon fill="none" stroke="black" points="133.21,-205.68 124.06,-211.02 134.54,-212.55 133.21,-205.68"/>
</g>
<!-- \\Sandbox\\Value\\Option\\None -->
<g id="node7" class="node">
<title>\\Sandbox\\Value\\Option\\None</title>
<polygon fill="none" stroke="black" points="250,-130 196,-130 196,-94 250,-94 250,-130"/>
<text text-anchor="middle" x="223" y="-109.2" font-family="Courier,monospace" font-size="11.00">None</text>
</g>
<!-- \\Sandbox\\Value\\Option\\Option -->
<g id="node9" class="node">
<title>\\Sandbox\\Value\\Option\\Option</title>
<polygon fill="none" stroke="black" points="110.5,-103 53.5,-103 53.5,-67 110.5,-67 110.5,-103"/>
<text text-anchor="middle" x="82" y="-82.2" font-family="Courier,monospace" font-size="11.00">Option</text>
</g>
<!-- \\Sandbox\\Value\\Option\\None&#45;&gt;\\Sandbox\\Value\\Option\\Option -->
<g id="edge5" class="edge">
<title>\\Sandbox\\Value\\Option\\None&#45;&gt;\\Sandbox\\Value\\Option\\Option</title>
<path fill="none" stroke="black" stroke-dasharray="1,5" d="M195.86,-106.92C174.76,-102.82 144.78,-97 121.02,-92.39"/>
<polygon fill="none" stroke="black" points="121.42,-88.9 110.94,-90.43 120.08,-95.77 121.42,-88.9"/>
</g>
<!-- \\Sandbox\\Value\\Option\\Some -->
<g id="node8" class="node">
<title>\\Sandbox\\Value\\Option\\Some</title>
<polygon fill="none" stroke="black" points="250,-76 196,-76 196,-40 250,-40 250,-76"/>
<text text-anchor="middle" x="223" y="-55.2" font-family="Courier,monospace" font-size="11.00">Some</text>
</g>
<!-- \\Sandbox\\Value\\Option\\Some&#45;&gt;\\Sandbox\\Value\\Option\\Option -->
<g id="edge6" class="edge">
<title>\\Sandbox\\Value\\Option\\Some&#45;&gt;\\Sandbox\\Value\\Option\\Option</title>
<path fill="none" stroke="black" stroke-dasharray="1,5" d="M195.86,-63.08C174.76,-67.18 144.78,-73 121.02,-77.61"/>
<polygon fill="none" stroke="black" points="120.08,-74.23 110.94,-79.57 121.42,-81.1 120.08,-74.23"/>
</g>
</g>
</svg>
